<mxfile host="app.diagrams.net" modified="2022-01-05T23:18:00.550Z" agent="5.0 (Windows)" etag="5vnocDW0aGo3_XZtphGC" version="16.2.2" type="github">
  <diagram id="TrQrrfVZEsW6YvjK7MY5" name="Page-1">
    <mxGraphModel dx="920" dy="462" grid="1" gridSize="10" guides="1" tooltips="1" connect="1" arrows="1" fold="1" page="1" pageScale="1" pageWidth="827" pageHeight="1169" math="0" shadow="0">
      <root>
        <mxCell id="0" />
        <mxCell id="1" parent="0" />
        <mxCell id="7WM5nvCgGK0gfCocXx7i-20" value="" style="group" vertex="1" connectable="0" parent="1">
          <mxGeometry x="80" y="80" width="430" height="280" as="geometry" />
        </mxCell>
        <mxCell id="7WM5nvCgGK0gfCocXx7i-1" value="Group" style="whiteSpace=wrap;html=1;fontStyle=1;fillColor=#dae8fc;strokeColor=#6c8ebf;strokeWidth=2;fontSize=16;" vertex="1" parent="7WM5nvCgGK0gfCocXx7i-20">
          <mxGeometry x="200" width="80" height="40" as="geometry" />
        </mxCell>
        <mxCell id="7WM5nvCgGK0gfCocXx7i-3" value="Group" style="whiteSpace=wrap;html=1;fontStyle=1;fillColor=#dae8fc;strokeColor=#6c8ebf;strokeWidth=2;fontSize=16;" vertex="1" parent="7WM5nvCgGK0gfCocXx7i-20">
          <mxGeometry x="50" y="120" width="80" height="40" as="geometry" />
        </mxCell>
        <mxCell id="7WM5nvCgGK0gfCocXx7i-4" value="" style="edgeStyle=orthogonalEdgeStyle;rounded=0;orthogonalLoop=1;jettySize=auto;html=1;startArrow=none;startFill=0;endArrow=none;endFill=0;exitX=0.5;exitY=1;exitDx=0;exitDy=0;strokeWidth=2;fontSize=16;" edge="1" parent="7WM5nvCgGK0gfCocXx7i-20" source="7WM5nvCgGK0gfCocXx7i-1" target="7WM5nvCgGK0gfCocXx7i-3">
          <mxGeometry relative="1" as="geometry" />
        </mxCell>
        <mxCell id="7WM5nvCgGK0gfCocXx7i-6" value="Token" style="whiteSpace=wrap;html=1;fontStyle=1;fillColor=#ffe6cc;strokeColor=#d79b00;strokeWidth=2;fontSize=16;rounded=1;" vertex="1" parent="7WM5nvCgGK0gfCocXx7i-20">
          <mxGeometry x="250" y="120" width="80" height="40" as="geometry" />
        </mxCell>
        <mxCell id="7WM5nvCgGK0gfCocXx7i-7" value="" style="edgeStyle=orthogonalEdgeStyle;rounded=0;orthogonalLoop=1;jettySize=auto;html=1;endArrow=none;endFill=0;strokeWidth=2;fontSize=16;" edge="1" parent="7WM5nvCgGK0gfCocXx7i-20" source="7WM5nvCgGK0gfCocXx7i-1" target="7WM5nvCgGK0gfCocXx7i-6">
          <mxGeometry relative="1" as="geometry" />
        </mxCell>
        <mxCell id="7WM5nvCgGK0gfCocXx7i-11" style="edgeStyle=orthogonalEdgeStyle;rounded=0;orthogonalLoop=1;jettySize=auto;html=1;exitX=0.5;exitY=0;exitDx=0;exitDy=0;entryX=0.5;entryY=1;entryDx=0;entryDy=0;startArrow=none;startFill=0;endArrow=none;endFill=0;strokeWidth=2;fontSize=16;" edge="1" parent="7WM5nvCgGK0gfCocXx7i-20" source="7WM5nvCgGK0gfCocXx7i-8" target="7WM5nvCgGK0gfCocXx7i-1">
          <mxGeometry relative="1" as="geometry" />
        </mxCell>
        <mxCell id="7WM5nvCgGK0gfCocXx7i-8" value="Token" style="whiteSpace=wrap;html=1;fontStyle=1;fillColor=#ffe6cc;strokeColor=#d79b00;strokeWidth=2;fontSize=16;rounded=1;" vertex="1" parent="7WM5nvCgGK0gfCocXx7i-20">
          <mxGeometry x="150" y="120" width="80" height="40" as="geometry" />
        </mxCell>
        <mxCell id="7WM5nvCgGK0gfCocXx7i-12" style="edgeStyle=orthogonalEdgeStyle;rounded=0;orthogonalLoop=1;jettySize=auto;html=1;exitX=0.5;exitY=0;exitDx=0;exitDy=0;entryX=0.5;entryY=1;entryDx=0;entryDy=0;startArrow=none;startFill=0;endArrow=none;endFill=0;strokeWidth=2;fontSize=16;" edge="1" parent="7WM5nvCgGK0gfCocXx7i-20" source="7WM5nvCgGK0gfCocXx7i-9" target="7WM5nvCgGK0gfCocXx7i-1">
          <mxGeometry relative="1" as="geometry" />
        </mxCell>
        <mxCell id="7WM5nvCgGK0gfCocXx7i-9" value="Token" style="whiteSpace=wrap;html=1;fontStyle=1;fillColor=#ffe6cc;strokeColor=#d79b00;strokeWidth=2;fontSize=16;rounded=1;" vertex="1" parent="7WM5nvCgGK0gfCocXx7i-20">
          <mxGeometry x="350" y="120" width="80" height="40" as="geometry" />
        </mxCell>
        <mxCell id="7WM5nvCgGK0gfCocXx7i-13" value="Token" style="whiteSpace=wrap;html=1;fontStyle=1;fillColor=#ffe6cc;strokeColor=#d79b00;strokeWidth=2;fontSize=16;rounded=1;" vertex="1" parent="7WM5nvCgGK0gfCocXx7i-20">
          <mxGeometry y="240" width="80" height="40" as="geometry" />
        </mxCell>
        <mxCell id="7WM5nvCgGK0gfCocXx7i-17" style="edgeStyle=orthogonalEdgeStyle;rounded=0;orthogonalLoop=1;jettySize=auto;html=1;exitX=0.5;exitY=1;exitDx=0;exitDy=0;entryX=0.5;entryY=0;entryDx=0;entryDy=0;startArrow=none;startFill=0;endArrow=none;endFill=0;strokeWidth=2;fontSize=16;" edge="1" parent="7WM5nvCgGK0gfCocXx7i-20" source="7WM5nvCgGK0gfCocXx7i-3" target="7WM5nvCgGK0gfCocXx7i-13">
          <mxGeometry relative="1" as="geometry" />
        </mxCell>
        <mxCell id="7WM5nvCgGK0gfCocXx7i-18" style="edgeStyle=orthogonalEdgeStyle;rounded=0;orthogonalLoop=1;jettySize=auto;html=1;exitX=0.5;exitY=0;exitDx=0;exitDy=0;startArrow=none;startFill=0;endArrow=none;endFill=0;strokeWidth=2;fontSize=16;" edge="1" parent="7WM5nvCgGK0gfCocXx7i-20" source="7WM5nvCgGK0gfCocXx7i-14">
          <mxGeometry relative="1" as="geometry">
            <mxPoint x="90" y="160" as="targetPoint" />
          </mxGeometry>
        </mxCell>
        <mxCell id="7WM5nvCgGK0gfCocXx7i-14" value="Token" style="whiteSpace=wrap;html=1;fontStyle=1;fillColor=#ffe6cc;strokeColor=#d79b00;strokeWidth=2;fontSize=16;rounded=1;" vertex="1" parent="7WM5nvCgGK0gfCocXx7i-20">
          <mxGeometry x="100" y="240" width="80" height="40" as="geometry" />
        </mxCell>
        <mxCell id="7WM5nvCgGK0gfCocXx7i-45" value="" style="group" vertex="1" connectable="0" parent="1">
          <mxGeometry x="80" y="480" width="620" height="220" as="geometry" />
        </mxCell>
        <mxCell id="7WM5nvCgGK0gfCocXx7i-19" value="&lt;div style=&quot;font-size: 12px&quot; align=&quot;left&quot;&gt;&lt;font style=&quot;font-size: 12px&quot;&gt;{&lt;/font&gt;&lt;/div&gt;&lt;div style=&quot;font-size: 12px&quot; align=&quot;left&quot;&gt;&lt;font style=&quot;font-size: 12px&quot;&gt;&amp;nbsp; &quot;group-1&quot;: {&lt;/font&gt;&lt;/div&gt;&lt;div style=&quot;font-size: 12px&quot; align=&quot;left&quot;&gt;&lt;font style=&quot;font-size: 12px&quot;&gt;&amp;nbsp;&amp;nbsp;&amp;nbsp; &quot;token-1&quot;: {&lt;/font&gt;&lt;/div&gt;&lt;div style=&quot;font-size: 12px&quot; align=&quot;left&quot;&gt;&lt;font style=&quot;font-size: 12px&quot;&gt;&amp;nbsp;&amp;nbsp;&amp;nbsp;&amp;nbsp;&amp;nbsp; &quot;value&quot;: 123&lt;/font&gt;&lt;/div&gt;&lt;div style=&quot;font-size: 12px&quot; align=&quot;left&quot;&gt;&lt;font style=&quot;font-size: 12px&quot;&gt;&amp;nbsp;&amp;nbsp;&amp;nbsp; },&lt;/font&gt;&lt;/div&gt;&lt;div style=&quot;font-size: 12px&quot; align=&quot;left&quot;&gt;&lt;font style=&quot;font-size: 12px&quot;&gt;&amp;nbsp;&amp;nbsp;&amp;nbsp; &quot;token-2&quot;: {&lt;/font&gt;&lt;/div&gt;&lt;div style=&quot;font-size: 12px&quot; align=&quot;left&quot;&gt;&lt;font style=&quot;font-size: 12px&quot;&gt;&amp;nbsp;&amp;nbsp;&amp;nbsp;&amp;nbsp;&amp;nbsp; &quot;value&quot;: 321&lt;/font&gt;&lt;/div&gt;&lt;div style=&quot;font-size: 12px&quot; align=&quot;left&quot;&gt;&lt;font style=&quot;font-size: 12px&quot;&gt;&amp;nbsp;&amp;nbsp; }&lt;/font&gt;&lt;/div&gt;&lt;div style=&quot;font-size: 12px&quot; align=&quot;left&quot;&gt;&lt;font style=&quot;font-size: 12px&quot;&gt;&amp;nbsp;&amp;nbsp; ...&lt;/font&gt;&lt;/div&gt;&lt;div style=&quot;font-size: 12px&quot; align=&quot;left&quot;&gt;&lt;font style=&quot;font-size: 12px&quot;&gt;}&lt;br&gt;&lt;/font&gt;&lt;/div&gt;&lt;font style=&quot;font-size: 12px&quot;&gt;&lt;br&gt;&lt;/font&gt;" style="shape=note;whiteSpace=wrap;html=1;backgroundOutline=1;darkOpacity=0.05;rounded=1;fontSize=16;strokeWidth=2;verticalAlign=top;spacing=0;spacingLeft=-15;" vertex="1" parent="7WM5nvCgGK0gfCocXx7i-45">
          <mxGeometry width="120" height="170" as="geometry" />
        </mxCell>
        <mxCell id="7WM5nvCgGK0gfCocXx7i-37" value="" style="group" vertex="1" connectable="0" parent="7WM5nvCgGK0gfCocXx7i-45">
          <mxGeometry x="370" width="250" height="170" as="geometry" />
        </mxCell>
        <mxCell id="7WM5nvCgGK0gfCocXx7i-22" value="" style="whiteSpace=wrap;html=1;fontStyle=1;fillColor=#dae8fc;strokeColor=#6c8ebf;strokeWidth=2;fontSize=16;" vertex="1" parent="7WM5nvCgGK0gfCocXx7i-37">
          <mxGeometry x="110" width="40" height="30" as="geometry" />
        </mxCell>
        <mxCell id="7WM5nvCgGK0gfCocXx7i-23" value="&lt;div&gt;&lt;br&gt;&lt;/div&gt;" style="whiteSpace=wrap;html=1;fontStyle=1;fillColor=#dae8fc;strokeColor=#6c8ebf;strokeWidth=2;fontSize=16;" vertex="1" parent="7WM5nvCgGK0gfCocXx7i-37">
          <mxGeometry x="30" y="70" width="40" height="30" as="geometry" />
        </mxCell>
        <mxCell id="7WM5nvCgGK0gfCocXx7i-24" value="" style="edgeStyle=orthogonalEdgeStyle;rounded=0;orthogonalLoop=1;jettySize=auto;html=1;startArrow=none;startFill=0;endArrow=none;endFill=0;exitX=0.5;exitY=1;exitDx=0;exitDy=0;strokeWidth=2;fontSize=16;" edge="1" parent="7WM5nvCgGK0gfCocXx7i-37" source="7WM5nvCgGK0gfCocXx7i-22" target="7WM5nvCgGK0gfCocXx7i-23">
          <mxGeometry relative="1" as="geometry" />
        </mxCell>
        <mxCell id="7WM5nvCgGK0gfCocXx7i-25" value="" style="whiteSpace=wrap;html=1;fontStyle=1;fillColor=#ffe6cc;strokeColor=#d79b00;strokeWidth=2;fontSize=16;rounded=1;" vertex="1" parent="7WM5nvCgGK0gfCocXx7i-37">
          <mxGeometry x="150" y="70" width="40" height="30" as="geometry" />
        </mxCell>
        <mxCell id="7WM5nvCgGK0gfCocXx7i-26" value="" style="edgeStyle=orthogonalEdgeStyle;rounded=0;orthogonalLoop=1;jettySize=auto;html=1;endArrow=none;endFill=0;strokeWidth=2;fontSize=16;" edge="1" parent="7WM5nvCgGK0gfCocXx7i-37" source="7WM5nvCgGK0gfCocXx7i-22" target="7WM5nvCgGK0gfCocXx7i-25">
          <mxGeometry relative="1" as="geometry" />
        </mxCell>
        <mxCell id="7WM5nvCgGK0gfCocXx7i-27" style="edgeStyle=orthogonalEdgeStyle;rounded=0;orthogonalLoop=1;jettySize=auto;html=1;exitX=0.5;exitY=0;exitDx=0;exitDy=0;entryX=0.5;entryY=1;entryDx=0;entryDy=0;startArrow=none;startFill=0;endArrow=none;endFill=0;strokeWidth=2;fontSize=16;" edge="1" parent="7WM5nvCgGK0gfCocXx7i-37" source="7WM5nvCgGK0gfCocXx7i-28" target="7WM5nvCgGK0gfCocXx7i-22">
          <mxGeometry relative="1" as="geometry" />
        </mxCell>
        <mxCell id="7WM5nvCgGK0gfCocXx7i-28" value="" style="whiteSpace=wrap;html=1;fontStyle=1;fillColor=#ffe6cc;strokeColor=#d79b00;strokeWidth=2;fontSize=16;rounded=1;" vertex="1" parent="7WM5nvCgGK0gfCocXx7i-37">
          <mxGeometry x="90" y="70" width="40" height="30" as="geometry" />
        </mxCell>
        <mxCell id="7WM5nvCgGK0gfCocXx7i-29" style="edgeStyle=orthogonalEdgeStyle;rounded=0;orthogonalLoop=1;jettySize=auto;html=1;exitX=0.5;exitY=0;exitDx=0;exitDy=0;entryX=0.5;entryY=1;entryDx=0;entryDy=0;startArrow=none;startFill=0;endArrow=none;endFill=0;strokeWidth=2;fontSize=16;" edge="1" parent="7WM5nvCgGK0gfCocXx7i-37" source="7WM5nvCgGK0gfCocXx7i-30" target="7WM5nvCgGK0gfCocXx7i-22">
          <mxGeometry relative="1" as="geometry" />
        </mxCell>
        <mxCell id="7WM5nvCgGK0gfCocXx7i-30" value="" style="whiteSpace=wrap;html=1;fontStyle=1;fillColor=#ffe6cc;strokeColor=#d79b00;strokeWidth=2;fontSize=16;rounded=1;" vertex="1" parent="7WM5nvCgGK0gfCocXx7i-37">
          <mxGeometry x="210" y="70" width="40" height="30" as="geometry" />
        </mxCell>
        <mxCell id="7WM5nvCgGK0gfCocXx7i-31" value="" style="whiteSpace=wrap;html=1;fontStyle=1;fillColor=#ffe6cc;strokeColor=#d79b00;strokeWidth=2;fontSize=16;rounded=1;" vertex="1" parent="7WM5nvCgGK0gfCocXx7i-37">
          <mxGeometry y="140" width="40" height="30" as="geometry" />
        </mxCell>
        <mxCell id="7WM5nvCgGK0gfCocXx7i-32" style="edgeStyle=orthogonalEdgeStyle;rounded=0;orthogonalLoop=1;jettySize=auto;html=1;exitX=0.5;exitY=1;exitDx=0;exitDy=0;entryX=0.5;entryY=0;entryDx=0;entryDy=0;startArrow=none;startFill=0;endArrow=none;endFill=0;strokeWidth=2;fontSize=16;" edge="1" parent="7WM5nvCgGK0gfCocXx7i-37" source="7WM5nvCgGK0gfCocXx7i-23" target="7WM5nvCgGK0gfCocXx7i-31">
          <mxGeometry relative="1" as="geometry" />
        </mxCell>
        <mxCell id="7WM5nvCgGK0gfCocXx7i-33" style="edgeStyle=orthogonalEdgeStyle;rounded=0;orthogonalLoop=1;jettySize=auto;html=1;exitX=0.5;exitY=0;exitDx=0;exitDy=0;startArrow=none;startFill=0;endArrow=none;endFill=0;strokeWidth=2;fontSize=16;entryX=0.5;entryY=1;entryDx=0;entryDy=0;" edge="1" parent="7WM5nvCgGK0gfCocXx7i-37" source="7WM5nvCgGK0gfCocXx7i-34" target="7WM5nvCgGK0gfCocXx7i-23">
          <mxGeometry relative="1" as="geometry">
            <mxPoint x="60" y="160" as="targetPoint" />
          </mxGeometry>
        </mxCell>
        <mxCell id="7WM5nvCgGK0gfCocXx7i-34" value="" style="whiteSpace=wrap;html=1;fontStyle=1;fillColor=#ffe6cc;strokeColor=#d79b00;strokeWidth=2;fontSize=16;rounded=1;" vertex="1" parent="7WM5nvCgGK0gfCocXx7i-37">
          <mxGeometry x="60" y="140" width="40" height="30" as="geometry" />
        </mxCell>
        <mxCell id="7WM5nvCgGK0gfCocXx7i-41" value="" style="group" vertex="1" connectable="0" parent="7WM5nvCgGK0gfCocXx7i-45">
          <mxGeometry x="150" y="25" width="200" height="120" as="geometry" />
        </mxCell>
        <mxCell id="7WM5nvCgGK0gfCocXx7i-36" value="" style="shape=flexArrow;endArrow=classic;html=1;rounded=0;fontSize=12;strokeWidth=2;fillColor=#000000;strokeColor=none;" edge="1" parent="7WM5nvCgGK0gfCocXx7i-41">
          <mxGeometry width="50" height="50" relative="1" as="geometry">
            <mxPoint x="200" y="79.40999999999997" as="sourcePoint" />
            <mxPoint y="79.40999999999997" as="targetPoint" />
          </mxGeometry>
        </mxCell>
        <mxCell id="7WM5nvCgGK0gfCocXx7i-38" value="" style="shape=flexArrow;endArrow=classic;html=1;rounded=0;fontSize=12;strokeWidth=2;fillColor=#000000;strokeColor=none;" edge="1" parent="7WM5nvCgGK0gfCocXx7i-41">
          <mxGeometry width="50" height="50" relative="1" as="geometry">
            <mxPoint y="39.999999999999886" as="sourcePoint" />
            <mxPoint x="200" y="39.999999999999886" as="targetPoint" />
          </mxGeometry>
        </mxCell>
        <mxCell id="7WM5nvCgGK0gfCocXx7i-39" value="Parse" style="text;html=1;strokeColor=none;fillColor=none;align=center;verticalAlign=middle;whiteSpace=wrap;rounded=0;fontSize=24;" vertex="1" parent="7WM5nvCgGK0gfCocXx7i-41">
          <mxGeometry width="200" height="30" as="geometry" />
        </mxCell>
        <mxCell id="7WM5nvCgGK0gfCocXx7i-40" value="Serialize" style="text;html=1;strokeColor=none;fillColor=none;align=center;verticalAlign=middle;whiteSpace=wrap;rounded=0;fontSize=24;" vertex="1" parent="7WM5nvCgGK0gfCocXx7i-41">
          <mxGeometry y="90" width="200" height="30" as="geometry" />
        </mxCell>
        <mxCell id="7WM5nvCgGK0gfCocXx7i-43" value="File" style="text;html=1;strokeColor=none;fillColor=none;align=center;verticalAlign=middle;whiteSpace=wrap;rounded=0;fontSize=24;" vertex="1" parent="7WM5nvCgGK0gfCocXx7i-45">
          <mxGeometry y="190" width="120" height="30" as="geometry" />
        </mxCell>
        <mxCell id="7WM5nvCgGK0gfCocXx7i-44" value="Data model" style="text;html=1;strokeColor=none;fillColor=none;align=center;verticalAlign=middle;whiteSpace=wrap;rounded=0;fontSize=24;" vertex="1" parent="7WM5nvCgGK0gfCocXx7i-45">
          <mxGeometry x="370" y="190" width="250" height="30" as="geometry" />
        </mxCell>
      </root>
    </mxGraphModel>
  </diagram>
</mxfile>
